<?xml version="1.0" encoding="utf-8"?>
<!-- Generator: Adobe Illustrator 24.1.2, SVG Export Plug-In . SVG Version: 6.00 Build 0)  -->
<svg version="1.1" id="Layer_1" xmlns="http://www.w3.org/2000/svg" xmlns:xlink="http://www.w3.org/1999/xlink" x="0px" y="0px"
	 viewBox="0 0 50 10" style="enable-background:new 0 0 50 10;" xml:space="preserve">
<style type="text/css">
	.st0{fill:#F18725;}
</style>
<polygon class="st0" points="25,0.7 26.1,4 29.6,4 26.7,6 27.8,9.3 25,7.3 22.2,9.3 23.3,6 20.4,4 23.9,4 "/>
<polygon class="st0" points="34.5,0.7 35.6,4 39.1,4 36.3,6 37.3,9.3 34.5,7.3 31.7,9.3 32.8,6 30,4 33.4,4 "/>
<polygon class="st0" points="44,0.7 45.1,4 48.6,4 45.8,6 46.9,9.3 44,7.3 41.2,9.3 42.3,6 39.5,4 43,4 "/>
<polygon class="st0" points="15.5,0.7 16.6,4 20,4 17.2,6 18.3,9.3 15.5,7.3 12.7,9.3 13.7,6 10.9,4 14.4,4 "/>
<polygon class="st0" points="6,0.7 7,4 10.5,4 7.7,6 8.8,9.3 6,7.3 3.1,9.3 4.2,6 1.4,4 4.9,4 "/>
</svg>
